<svg width="51" height="56" viewBox="0 0 51 56" fill="none" xmlns="http://www.w3.org/2000/svg">
<path d="M30.937 38.5965C41.5952 38.5965 50.2353 29.9563 50.2353 19.2982C50.2353 8.64011 41.5952 0 30.937 0C20.2788 0 11.6387 8.64011 11.6387 19.2982C11.6387 29.9563 20.2788 38.5965 30.937 38.5965Z" fill="#ECF2F9"/>
<path d="M33.9213 11.5791H10.8923C10.3619 11.5791 9.85314 11.7898 9.47807 12.1649L2.35141 19.2916C1.97634 19.6667 1.76562 20.1754 1.76562 20.7058V50.996C1.76562 52.137 2.69918 53.0705 3.84018 53.0705H33.9213C35.0623 53.0705 35.9958 52.137 35.9958 50.996V13.6537C35.9958 12.5127 35.0623 11.5791 33.9213 11.5791Z" fill="white"/>
<path d="M1.76562 20.9147H11.1011V11.5791L1.76562 20.9147Z" fill="#3AD1B8"/>
<path d="M4.87695 20.9146H11.1006V14.6909" stroke="#2C2A47" stroke-width="2" stroke-miterlimit="10" stroke-linecap="round" stroke-linejoin="round"/>
<path d="M26.6603 53.0705H33.9213C35.0623 53.0705 35.9958 52.137 35.9958 50.996V13.6537C35.9958 12.5127 35.0623 11.5791 33.9213 11.5791H10.0639L1.76562 19.8774V50.996C1.76562 52.137 2.69918 53.0705 3.84018 53.0705H12.1384" stroke="#2C2A47" stroke-width="2" stroke-miterlimit="10" stroke-linecap="round" stroke-linejoin="round"/>
<path d="M23.2243 36.6557V48.2417H21.6892H15.5004V36.6557H10.8467L19.5361 26.0642L28.2256 36.6557H23.2243Z" fill="#3AD1B8" stroke="#2C2A47" stroke-width="2" stroke-miterlimit="10" stroke-linecap="round" stroke-linejoin="round"/>
<path d="M23.224 51.1379H15.5V54.9999H23.224V51.1379Z" fill="#3AD1B8"/>
<path d="M23.224 51.1379V54.9999H15.5V51.1379" stroke="#2C2A47" stroke-width="2" stroke-miterlimit="10" stroke-linecap="round" stroke-linejoin="round"/>
</svg>
